<svg width="172" height="381" viewBox="0 0 172 381" fill="none" xmlns="http://www.w3.org/2000/svg">
<path d="M58.1568 43.3877C56.2163 43.9249 54.4559 44.1928 52.8872 44.9326C50.8455 45.864 48.8304 46.8576 47.2173 48.3721C45.462 49.9648 44.0423 51.9587 42.7739 53.9346C41.1446 56.6209 39.7638 59.4217 38.6177 62.3311C37.491 65.1482 36.4422 68.0784 35.8111 71.0303C35.2693 73.8418 35.4401 76.7359 35.1548 79.5654C36.3622 79.2005 37.5931 79.1625 38.6509 78.5518C40.9391 77.3156 42.9758 75.7999 44.9125 74.0986C46.5383 72.7467 48.1327 71.324 49.2954 69.5752C50.8286 67.1877 52.1572 64.5907 53.1997 61.9072C53.9611 59.6332 54.1998 57.1613 54.6353 54.751C54.9961 52.6272 54.8965 50.4295 55.5044 48.3291C55.983 46.5581 57.8701 45.0517 58.1568 43.3877ZM23.2173 61.4775C22.2805 62.6016 21.1526 63.6671 20.4849 64.9717C19.5314 66.7696 18.8995 68.7136 18.3364 70.626C17.8516 72.2344 17.1067 73.8347 17.2407 75.5068C17.3981 78.6639 18.1389 81.8126 19.022 84.7979C20.0333 88.1301 21.7396 91.2237 22.8696 94.4873C23.6364 96.5472 24.2509 98.6049 24.6704 100.776C25.192 103.553 25.5249 106.447 25.6997 109.339C25.7587 110.309 25.556 111.257 25.4204 112.169C24.9992 111.578 24.6391 110.957 24.2778 110.331C23.4969 109.121 22.836 107.834 22.0239 106.72C20.6126 104.866 19.1894 103.106 17.5689 101.462C15.8783 99.6883 13.7969 98.3926 12.2329 96.5459C11.2241 95.3866 10.462 93.9114 9.89504 92.4932C9.47374 91.4812 9.53465 90.2759 9.34035 89.2256C8.70065 90.4253 7.95824 91.6017 7.39894 92.9248C6.74354 94.3923 6.00193 95.9843 5.67433 97.5908C5.36833 99.5129 5.26355 101.489 5.43605 103.39C5.69545 105.569 6.27918 107.733 6.95168 109.755C7.97848 112.827 9.00056 115.902 10.44 118.813C12.0479 122.056 13.9568 125.202 16.0669 128.144C17.0649 129.572 18.6389 130.58 19.7544 131.929C20.5949 132.946 21.4573 134.022 21.9888 135.226C22.5578 136.643 22.9046 138.11 22.9966 139.552C23.0566 141.263 22.6112 142.941 22.479 144.593C22.441 145.368 22.0644 146.166 22.2778 146.97C22.504 147.662 22.9139 148.508 23.6665 148.649C24.3948 148.905 25.4007 148.491 25.9125 147.94C26.5778 147.224 26.6192 146.119 26.9517 145.263C27.3066 144.305 27.774 143.368 27.938 142.362C28.1864 141.052 28.1704 139.732 28.1314 138.507C28.0984 137.437 27.8821 136.484 27.8111 135.355C29.8079 134.202 31.7567 133.244 33.5962 132.101C35.6788 130.813 37.6894 129.401 39.606 127.8C41.903 125.717 44.0899 123.453 46.0904 121.144C48.1356 118.789 50.1253 116.308 51.8755 113.722C53.0937 111.933 54.3047 109.988 54.9185 107.876C55.452 106.07 55.2372 104.112 55.2622 102.27C55.2522 101.105 55.1863 99.9808 54.9634 98.8623C54.7639 97.8111 54.448 96.8244 54.1431 95.4209C53.7777 95.964 53.6121 96.973 53.1411 97.7432C52.5898 98.6485 51.8346 99.5038 50.9634 100.169C49.8841 101.043 48.5922 101.537 47.4029 102.224C45.7172 103.197 44.0736 104.238 42.3618 105.3C40.7106 106.338 39.0561 107.38 37.4457 108.476C35.4288 109.895 33.5573 111.554 31.565 112.866C31.2286 110.983 30.7715 109.327 30.4439 107.605C30.1551 106.099 29.4567 104.59 29.7564 103.093C29.8642 102.274 30.8641 101.862 31.5962 101.528C32.2569 101.228 33.1406 101.463 33.9009 101.194C35.7419 100.626 37.6104 99.9639 39.3306 99.0557C41.8139 97.8691 44.2892 96.5249 46.5767 94.8721C48.6533 93.4259 50.5483 91.6638 52.354 89.876C54.1515 88.0851 56.0773 86.2289 57.4575 84.0107C58.4665 82.4318 58.9913 80.4606 59.2368 78.5732C59.4453 76.7845 58.9829 74.9729 58.7407 73.1084C58.0265 74.0266 57.5872 75.2807 56.6646 76.1416C55.7193 77.1045 54.5596 77.6926 53.4263 78.1807C51.857 78.9168 50.0869 79.1928 48.479 79.7002C46.7636 80.1962 44.972 80.5629 43.3404 81.335C41.7719 82.0745 40.418 83.1924 38.9907 84.1826C37.836 84.9265 36.658 85.7725 35.52 86.6885C34.5892 87.3841 33.7014 88.1512 32.815 88.4971C33.0219 87.1263 33.5279 86.2615 33.5279 85.2549C33.5409 84.4094 33.1334 83.5633 32.7993 82.8486C32.3796 81.6697 31.8288 80.5747 31.2134 79.5088C29.1235 75.4708 26.8873 71.5981 24.8052 67.5557C24.2224 66.3898 23.6316 65.2358 23.3325 63.9912C23.1247 63.1957 23.2376 62.3816 23.2173 61.4775ZM50.104 127.813C49.7282 129.031 49.5853 130.532 48.981 131.792C48.3343 133.251 47.3488 134.572 46.2446 135.704C44.7879 137.213 42.9188 138.292 41.3794 139.675C39.697 141.229 38.148 142.881 36.6353 144.585C34.9077 146.498 33.1791 148.411 31.8189 150.528C30.348 152.88 29.314 155.556 28.0747 158.02C26.9146 156.443 25.7785 154.769 24.5493 153.224C23.5718 151.961 22.5294 150.732 21.3657 149.573C19.0648 147.318 16.6593 145.042 14.0864 143.028C12.0461 141.375 9.61914 140.193 7.58254 138.542C6.18914 137.427 4.97883 136.047 3.82863 134.63C3.13543 133.86 2.59724 132.928 1.99074 132.026C1.66444 133.624 1.18153 135.24 0.953631 136.87C0.732631 139.087 0.247534 141.279 0.674334 143.442C1.27863 146.519 2.61962 149.402 4.04152 152.165C5.50062 154.98 7.30794 157.689 9.27004 160.218C11.749 163.367 14.5163 166.264 17.4575 169.062C19.1414 170.669 21.1503 171.851 22.9185 173.325C23.9627 174.136 25.169 174.767 25.9419 175.823C26.9079 177.347 27.4601 179.028 27.9478 180.743C28.4311 182.299 28.5005 184.007 28.6997 185.638C28.7587 186.19 29.203 187.11 28.7348 187.284C28.1089 187.646 27.2816 186.96 26.5608 186.704C24.7253 186.107 22.8369 185.448 21.0141 184.747C19.004 183.996 17.0109 183.142 15.0219 182.294C13.7994 181.752 12.5396 181.313 11.3793 180.735C10.2112 180.162 8.98367 179.616 7.99257 178.774C7.04057 177.988 6.42842 176.931 5.66432 176.044C5.74332 177.906 5.50607 179.801 5.77187 181.563C6.21597 184.219 6.74861 186.989 7.79531 189.544C8.80481 191.719 10.3136 193.758 11.9711 195.628C14.3009 198.365 16.986 200.983 19.8676 203.228C22.5497 205.433 25.4672 207.32 28.5121 208.98C30.2901 210.042 32.2892 210.468 34.1448 211.231C35.1014 211.587 36.2351 211.683 37.0766 212.278C37.8265 212.846 38.0808 213.868 38.5785 214.581C39.7229 216.411 40.9296 218.221 42.1311 220.022C42.7277 220.925 43.1306 222.032 44.01 222.683C44.5148 223.144 45.2769 223.288 45.9379 223.157C46.5431 223.059 47.1714 222.696 47.4301 222.122C47.8405 221.391 47.8812 220.448 47.643 219.751C46.955 217.989 45.4555 216.686 44.7444 215.015C44.2169 213.817 43.8728 212.52 43.9008 211.257C43.9528 210.477 44.5883 209.861 45.0375 209.181C46.191 207.429 47.4848 205.778 48.5393 203.999C50.2213 201.286 51.9275 198.625 53.1448 195.675C54.7673 192 56.2152 188.159 56.9535 184.237C57.5504 180.811 57.4974 177.258 57.0979 173.827C56.7998 170.998 55.8961 168.276 54.7776 165.759C53.9933 164.126 52.655 162.813 51.5297 161.3C51.2728 162.862 51.1397 164.518 50.9809 166.116C50.3563 168.053 49.2028 169.801 48.0434 171.556C46.1333 174.732 43.845 177.559 41.9379 180.741C40.6814 182.884 39.5636 185.282 38.6742 187.63C37.8573 189.677 37.4415 191.843 36.7893 193.88C36.3511 191.974 36.061 189.881 35.4008 188.019C34.7782 186.374 33.6936 184.926 33.0785 183.28C32.4068 181.247 31.579 179.233 31.553 177.163C31.505 175.943 32.0723 174.612 32.8559 173.661C34.0017 172.335 35.8401 171.772 37.1604 170.597C38.5705 169.284 39.8696 167.782 41.0336 166.194C42.8359 163.821 44.693 161.42 46.178 158.806C48.1171 155.527 49.9173 152.151 51.2268 148.645C52.3672 145.577 53.239 142.321 53.5258 139.081C53.6898 136.901 53.0745 134.68 52.4262 132.552C51.97 130.9 50.9182 129.506 50.104 127.813ZM58.5982 192.866C58.923 194.003 59.5217 195.327 59.5707 196.712C59.5967 198.195 59.2352 199.739 58.7661 201.095C57.9918 203.372 56.7354 205.351 55.8872 207.501C54.8867 210.079 54.0333 212.649 53.225 215.286C52.5516 217.587 51.7887 219.861 51.4732 222.21C51.192 224.041 51.5361 225.926 51.6196 227.786C51.7244 229.143 51.9425 230.516 52.0591 232.024C50.4925 231.179 48.8429 230.051 47.2075 229.091C45.5571 228.117 43.9456 227.055 42.1646 226.427C40.1715 225.569 38.0395 225.054 35.9125 224.536C33.0518 223.77 30.0843 223.231 27.2036 222.565C24.8069 222.034 22.4018 221.75 20.1138 220.823C18.3934 220.156 17.0153 218.782 15.5415 217.81C16.175 220.352 16.143 223.034 17.1255 225.468C18.2894 228.202 20.061 230.683 22.0239 232.79C24.0341 234.97 26.5544 236.598 28.9419 238.29C32.0816 240.405 35.2909 242.624 38.7368 244.138C41.8877 245.566 45.3273 246.327 48.6704 247.062C51.1264 247.717 53.6891 247.826 56.2427 248.356C57.1968 248.559 58.1749 248.82 59.0493 249.323C59.5535 249.604 59.877 250.163 60.1646 250.661C61.131 252.196 61.847 253.868 62.8716 255.351C64.0039 257.03 65.1356 258.711 66.5903 260.204C67.0719 260.764 67.7253 261.464 68.4263 261.38C69.2372 261.344 69.9579 260.578 70.3111 259.892C70.656 259.183 70.758 258.204 70.4243 257.485C69.8213 256.007 68.3978 254.998 67.4849 253.69C66.108 251.732 64.6283 249.759 63.5707 247.624C63.0878 246.652 62.9513 245.564 62.9263 244.497C63.1511 239.54 67.1792 233.552 68.2759 228.663C69.8328 221.268 69.9153 209.141 66.9771 202.179C65.3203 198.308 61.7074 195.651 58.5982 192.866ZM71.9341 228.22C72.7154 229.437 73.5679 230.61 74.0357 232.009C74.634 233.907 75.1044 235.881 75.0884 237.884C75.1144 240.371 74.3546 242.799 74.0181 245.253C73.687 247.854 73.2414 250.532 73.1704 253.157C73.1254 255.67 73.3143 258.158 73.7798 260.55C74.0591 262.053 74.5073 263.543 75.1625 264.829C75.7484 265.993 76.7076 266.927 77.3872 267.956C75.1792 267.149 73.2009 266.048 71.0064 265.565C68.94 265.009 66.7624 264.846 64.6587 264.813C61.6218 264.74 58.5357 265.018 55.5513 265.331C52.7891 265.59 49.9935 266.369 47.2232 266.47C45.3554 266.552 43.386 266.187 41.5239 265.845C40.1892 265.538 39.0195 264.961 37.9536 264.569C39.4489 266.877 40.75 269.965 42.479 271.956C43.9336 273.619 45.6795 275.195 47.5806 276.337C52.9152 279.51 60.3795 281.773 66.5454 282.79C74.0848 284.025 80.0584 282.82 87.4536 281.628C88.4414 281.479 89.3912 281.1 90.3657 281.202C90.9469 281.195 91.3379 281.727 91.772 282.048C93.5831 283.173 95.3105 284.434 97.0825 285.481C98.2208 286.157 99.2767 286.959 100.549 287.151C101.199 287.271 102.045 286.861 102.43 286.23C102.751 285.623 102.54 284.836 102.305 284.134C102.008 283.475 101.548 282.823 100.934 282.343C98.8732 280.791 96.3636 279.903 94.3247 278.253C93.5419 277.616 92.9436 276.722 92.565 275.77C91.7546 273.661 92.6599 269.462 92.5549 267.108C92.4235 261.109 91.8429 254.779 89.9885 249.103C88.1018 243.538 85.1934 236.467 80.8694 232.302C78.2216 229.748 75.2445 229.054 71.9341 228.22ZM95.0239 254.938C96.0235 256.532 97.411 258.06 98.0962 259.835C98.819 261.661 98.8087 263.67 99.1802 265.614C99.7969 268.838 100.261 272.24 101.036 275.458C101.63 277.776 102.477 280.11 103.358 282.362C104.31 284.721 105.482 287.053 106.778 289.298C107.462 290.483 108.461 291.485 109.2 292.48C107.081 292.12 105.039 291.629 102.977 291.649C101.113 291.733 99.1937 292.165 97.3207 292.671C94.4918 293.397 91.6637 294.273 88.9125 295.274C86.0249 296.196 83.2675 297.468 80.4125 298.444C79.0575 298.972 77.6639 299.598 76.1587 299.729C74.4834 299.859 72.8103 299.413 71.1919 299.351C72.9103 301.023 74.404 302.741 76.2564 304.089C78.0592 305.466 79.9225 306.802 82.0318 307.581C85.0276 308.597 88.1936 309.176 91.3832 309.509C94.1179 309.764 96.9491 309.623 99.7193 309.522C101.977 309.389 104.26 309.162 106.426 308.733C108.561 308.258 110.583 307.422 112.678 306.876C114.779 306.328 116.806 305.652 118.983 305.392C120.783 305.186 122.719 305.084 124.545 305.347C126.862 305.766 128.97 306.964 131.172 307.605C132.491 308.01 133.793 308.67 135.149 308.722C135.64 308.697 135.918 308.035 136.184 307.626C136.474 307.123 136.855 306.49 136.79 305.944C136.691 305.329 136.202 304.781 135.735 304.39C135.02 303.883 134.142 303.653 133.311 303.376C131.634 302.927 129.8 303.062 128.274 302.286C127.435 301.855 126.853 300.848 126.573 299.937C126.124 298.284 126.373 296.552 126.084 294.888C125.643 291.976 125.255 289.131 124.376 286.302C123.367 283.126 122.12 279.942 120.639 276.958C118.884 273.48 116.998 270.076 114.715 266.972C112.627 264.091 110.301 261.365 107.584 259.095C105.81 257.624 103.777 256.554 101.602 255.81C99.4623 255.129 97.2081 255.265 95.0239 254.938ZM127.516 276.169C125.861 276.164 124.189 276.43 122.52 276.458C123.77 277.899 125.397 279.128 126.374 280.819C127.342 282.496 127.65 284.488 128.307 286.353C129.477 289.52 130.476 292.682 131.758 295.776C132.698 297.98 133.862 300.135 135.151 302.229C136.508 304.443 137.994 306.58 139.633 308.546C140.505 309.63 141.652 310.468 142.536 311.286C140.378 311.284 138.266 311.093 136.254 311.497C134.372 311.834 132.572 312.623 130.846 313.376C128.096 314.539 125.528 315.857 122.932 317.274C120.24 318.666 117.725 320.36 115.067 321.813C113.78 322.479 112.44 323.33 111.077 323.708C109.382 324.099 107.688 323.899 106.159 324.13C108.112 325.501 109.846 326.919 111.821 328.026C113.821 329.034 115.908 330.072 118.071 330.491C121.237 331.077 124.406 331.079 127.627 330.884C130.407 330.785 133.142 330.196 135.881 329.618C138.084 329.096 140.249 328.509 142.366 327.716C144.358 326.971 146.291 325.856 148.274 324.958C150.199 324.106 152.138 323.151 154.2 322.532C156.044 321.977 157.859 321.513 159.735 321.593C162.064 321.585 164.373 322.409 166.657 322.759C167.994 322.902 169.346 323.377 170.717 323.165C171.169 323.078 171.453 322.41 171.579 321.917C171.772 321.389 172.056 320.723 171.834 320.19C171.67 319.617 171.12 319.101 170.553 318.841C169.818 318.435 168.907 318.297 168.03 318.22C166.334 318.029 164.528 318.492 162.881 317.944C161.955 317.645 161.296 316.787 160.85 315.87C160.143 314.366 160.096 312.56 159.622 311.007C158.676 308.22 157.796 305.398 156.537 302.788C155.03 299.738 153.277 296.843 151.299 294.149C149.049 290.961 146.629 287.94 143.885 285.194C141.376 282.727 138.618 280.4 135.565 278.583C133.628 277.376 131.384 276.669 129.165 276.282C128.617 276.201 128.068 276.171 127.516 276.169Z" fill="white"/>
</svg>
