<svg width="172" height="381" viewBox="0 0 172 381" fill="none" xmlns="http://www.w3.org/2000/svg">
<path d="M113.843 43.3877C115.784 43.9249 117.544 44.1928 119.113 44.9326C121.154 45.864 123.17 46.8576 124.783 48.3721C126.538 49.9648 127.958 51.9587 129.226 53.9346C130.855 56.6209 132.236 59.4217 133.382 62.3311C134.509 65.1482 135.558 68.0784 136.189 71.0303C136.731 73.8418 136.56 76.7359 136.845 79.5654C135.638 79.2005 134.407 79.1625 133.349 78.5518C131.061 77.3156 129.024 75.7999 127.088 74.0986C125.462 72.7467 123.867 71.324 122.705 69.5752C121.171 67.1877 119.843 64.5907 118.8 61.9072C118.039 59.6332 117.8 57.1613 117.365 54.751C117.004 52.6272 117.103 50.4295 116.496 48.3291C116.017 46.5581 114.13 45.0517 113.843 43.3877ZM148.783 61.4775C149.719 62.6016 150.847 63.6671 151.515 64.9717C152.469 66.7696 153.1 68.7136 153.664 70.626C154.148 72.2344 154.893 73.8347 154.759 75.5068C154.602 78.6639 153.861 81.8126 152.978 84.7979C151.967 88.1301 150.26 91.2237 149.13 94.4873C148.364 96.5472 147.749 98.6049 147.33 100.776C146.808 103.553 146.475 106.447 146.3 109.339C146.241 110.309 146.444 111.257 146.58 112.169C147.001 111.578 147.361 110.957 147.722 110.331C148.503 109.121 149.164 107.834 149.976 106.72C151.387 104.866 152.811 103.106 154.431 101.462C156.122 99.6883 158.203 98.3926 159.767 96.5459C160.776 95.3866 161.538 93.9114 162.105 92.4932C162.526 91.4812 162.465 90.2759 162.66 89.2256C163.299 90.4253 164.042 91.6017 164.601 92.9248C165.256 94.3923 165.998 95.9843 166.326 97.5908C166.632 99.5129 166.736 101.489 166.564 103.39C166.305 105.569 165.721 107.733 165.048 109.755C164.022 112.827 162.999 115.902 161.56 118.813C159.952 122.056 158.043 125.202 155.933 128.144C154.935 129.572 153.361 130.58 152.246 131.929C151.405 132.946 150.543 134.022 150.011 135.226C149.442 136.643 149.095 138.11 149.003 139.552C148.943 141.263 149.389 142.941 149.521 144.593C149.559 145.368 149.936 146.166 149.722 146.97C149.496 147.662 149.086 148.508 148.333 148.649C147.605 148.905 146.599 148.491 146.088 147.94C145.422 147.224 145.381 146.119 145.048 145.263C144.693 144.305 144.226 143.368 144.062 142.362C143.814 141.052 143.83 139.732 143.869 138.507C143.902 137.437 144.118 136.484 144.189 135.355C142.192 134.202 140.243 133.244 138.404 132.101C136.321 130.813 134.311 129.401 132.394 127.8C130.097 125.717 127.91 123.453 125.91 121.144C123.864 118.789 121.875 116.308 120.124 113.722C118.906 111.933 117.695 109.988 117.082 107.876C116.548 106.07 116.763 104.112 116.738 102.27C116.748 101.105 116.814 99.9808 117.037 98.8623C117.236 97.8111 117.552 96.8244 117.857 95.4209C118.222 95.964 118.388 96.973 118.859 97.7432C119.41 98.6485 120.165 99.5038 121.037 100.169C122.116 101.043 123.408 101.537 124.597 102.224C126.283 103.197 127.926 104.238 129.638 105.3C131.289 106.338 132.944 107.38 134.554 108.476C136.571 109.895 138.443 111.554 140.435 112.866C140.771 110.983 141.229 109.327 141.556 107.605C141.845 106.099 142.543 104.59 142.244 103.093C142.136 102.274 141.136 101.862 140.404 101.528C139.743 101.228 138.859 101.463 138.099 101.194C136.258 100.626 134.39 99.9639 132.669 99.0557C130.186 97.8691 127.711 96.5249 125.423 94.8721C123.347 93.4259 121.452 91.6638 119.646 89.876C117.848 88.0851 115.923 86.2289 114.542 84.0107C113.533 82.4318 113.009 80.4606 112.763 78.5732C112.555 76.7845 113.017 74.9729 113.259 73.1084C113.973 74.0266 114.413 75.2807 115.335 76.1416C116.281 77.1045 117.44 77.6926 118.574 78.1807C120.143 78.9168 121.913 79.1928 123.521 79.7002C125.236 80.1962 127.028 80.5629 128.66 81.335C130.228 82.0745 131.582 83.1924 133.009 84.1826C134.164 84.9265 135.342 85.7725 136.48 86.6885C137.411 87.3841 138.299 88.1512 139.185 88.4971C138.978 87.1263 138.472 86.2615 138.472 85.2549C138.459 84.4094 138.867 83.5633 139.201 82.8486C139.62 81.6697 140.171 80.5747 140.787 79.5088C142.877 75.4708 145.113 71.5981 147.195 67.5557C147.778 66.3898 148.368 65.2358 148.667 63.9912C148.875 63.1957 148.762 62.3816 148.783 61.4775ZM121.896 127.813C122.272 129.031 122.415 130.532 123.019 131.792C123.666 133.251 124.651 134.572 125.755 135.704C127.212 137.213 129.081 138.292 130.621 139.675C132.303 141.229 133.852 142.881 135.365 144.585C137.092 146.498 138.821 148.411 140.181 150.528C141.652 152.88 142.686 155.556 143.925 158.02C145.085 156.443 146.221 154.769 147.451 153.224C148.428 151.961 149.471 150.732 150.634 149.573C152.935 147.318 155.341 145.042 157.914 143.028C159.954 141.375 162.381 140.193 164.417 138.542C165.811 137.427 167.021 136.047 168.171 134.63C168.865 133.86 169.403 132.928 170.009 132.026C170.336 133.624 170.818 135.24 171.046 136.87C171.267 139.087 171.752 141.279 171.326 143.442C170.721 146.519 169.38 149.402 167.958 152.165C166.499 154.98 164.692 157.689 162.73 160.218C160.251 163.367 157.484 166.264 154.542 169.062C152.859 170.669 150.85 171.851 149.082 173.325C148.037 174.136 146.831 174.767 146.058 175.823C145.092 177.347 144.54 179.028 144.052 180.743C143.569 182.299 143.499 184.007 143.3 185.638C143.241 186.19 142.797 187.11 143.265 187.284C143.891 187.646 144.718 186.96 145.439 186.704C147.275 186.107 149.163 185.448 150.986 184.747C152.996 183.996 154.989 183.142 156.978 182.294C158.201 181.752 159.46 181.313 160.621 180.735C161.789 180.162 163.016 179.616 164.007 178.774C164.959 177.988 165.572 176.931 166.336 176.044C166.257 177.906 166.494 179.801 166.228 181.563C165.784 184.219 165.251 186.989 164.205 189.544C163.195 191.719 161.686 193.758 160.029 195.628C157.699 198.365 155.014 200.983 152.132 203.228C149.45 205.433 146.533 207.32 143.488 208.98C141.71 210.042 139.711 210.468 137.855 211.231C136.899 211.587 135.765 211.683 134.923 212.278C134.174 212.846 133.919 213.868 133.421 214.581C132.277 216.411 131.07 218.221 129.869 220.022C129.272 220.925 128.869 222.032 127.99 222.683C127.485 223.144 126.723 223.288 126.062 223.157C125.457 223.059 124.829 222.696 124.57 222.122C124.16 221.391 124.119 220.448 124.357 219.751C125.045 217.989 126.544 216.686 127.256 215.015C127.783 213.817 128.127 212.52 128.099 211.257C128.047 210.477 127.412 209.861 126.963 209.181C125.809 207.429 124.515 205.778 123.461 203.999C121.779 201.286 120.073 198.625 118.855 195.675C117.233 192 115.785 188.159 115.046 184.237C114.45 180.811 114.503 177.258 114.902 173.827C115.2 170.998 116.104 168.276 117.222 165.759C118.007 164.126 119.345 162.813 120.47 161.3C120.727 162.862 120.86 164.518 121.019 166.116C121.644 168.053 122.797 169.801 123.957 171.556C125.867 174.732 128.155 177.559 130.062 180.741C131.319 182.884 132.436 185.282 133.326 187.63C134.143 189.677 134.558 191.843 135.211 193.88C135.649 191.974 135.939 189.881 136.599 188.019C137.222 186.374 138.306 184.926 138.921 183.28C139.593 181.247 140.421 179.233 140.447 177.163C140.495 175.943 139.928 174.612 139.144 173.661C137.998 172.335 136.16 171.772 134.84 170.597C133.429 169.284 132.13 167.782 130.966 166.194C129.164 163.821 127.307 161.42 125.822 158.806C123.883 155.527 122.083 152.151 120.773 148.645C119.633 145.577 118.761 142.321 118.474 139.081C118.31 136.901 118.926 134.68 119.574 132.552C120.03 130.9 121.082 129.506 121.896 127.813ZM113.402 192.866C113.077 194.003 112.478 195.327 112.429 196.712C112.403 198.195 112.765 199.739 113.234 201.095C114.008 203.372 115.265 205.351 116.113 207.501C117.113 210.079 117.967 212.649 118.775 215.286C119.448 217.587 120.211 219.861 120.527 222.21C120.808 224.041 120.464 225.926 120.38 227.786C120.276 229.143 120.057 230.516 119.941 232.024C121.507 231.179 123.157 230.051 124.792 229.091C126.443 228.117 128.054 227.055 129.835 226.427C131.829 225.569 133.961 225.054 136.088 224.536C138.948 223.77 141.916 223.231 144.796 222.565C147.193 222.034 149.598 221.75 151.886 220.823C153.607 220.156 154.985 218.782 156.458 217.81C155.825 220.352 155.857 223.034 154.874 225.468C153.711 228.202 151.939 230.683 149.976 232.79C147.966 234.97 145.446 236.598 143.058 238.29C139.918 240.405 136.709 242.624 133.263 244.138C130.112 245.566 126.673 246.327 123.33 247.062C120.874 247.717 118.311 247.826 115.757 248.356C114.803 248.559 113.825 248.82 112.951 249.323C112.446 249.604 112.123 250.163 111.835 250.661C110.869 252.196 110.153 253.868 109.128 255.351C107.996 257.03 106.864 258.711 105.41 260.204C104.928 260.764 104.275 261.464 103.574 261.38C102.763 261.344 102.042 260.578 101.689 259.892C101.344 259.183 101.242 258.204 101.576 257.485C102.179 256.007 103.602 254.998 104.515 253.69C105.892 251.732 107.372 249.759 108.429 247.624C108.912 246.652 109.049 245.564 109.074 244.497C108.849 239.54 104.821 233.552 103.724 228.663C102.167 221.268 102.085 209.141 105.023 202.179C106.68 198.308 110.293 195.651 113.402 192.866ZM100.066 228.22C99.2846 229.437 98.4321 230.61 97.9643 232.009C97.366 233.907 96.8956 235.881 96.9116 237.884C96.8856 240.371 97.6454 242.799 97.9819 245.253C98.313 247.854 98.7586 250.532 98.8296 253.157C98.8746 255.67 98.6857 258.158 98.2202 260.55C97.9409 262.053 97.4927 263.543 96.8375 264.829C96.2516 265.993 95.2924 266.927 94.6128 267.956C96.8208 267.149 98.7991 266.048 100.994 265.565C103.06 265.009 105.238 264.846 107.341 264.813C110.378 264.74 113.464 265.018 116.449 265.331C119.211 265.59 122.007 266.369 124.777 266.47C126.645 266.552 128.614 266.187 130.476 265.845C131.811 265.538 132.98 264.961 134.046 264.569C132.551 266.877 131.25 269.965 129.521 271.956C128.066 273.619 126.321 275.195 124.419 276.337C119.085 279.51 111.62 281.773 105.455 282.79C97.9152 284.025 91.9416 282.82 84.5464 281.628C83.5586 281.479 82.6088 281.1 81.6343 281.202C81.0531 281.195 80.6621 281.727 80.228 282.048C78.4169 283.173 76.6895 284.434 74.9175 285.481C73.7792 286.157 72.7233 286.959 71.4507 287.151C70.801 287.271 69.9547 286.861 69.5698 286.23C69.2486 285.623 69.4601 284.836 69.6948 284.134C69.9921 283.475 70.4524 282.823 71.0659 282.343C73.1268 280.791 75.6364 279.903 77.6753 278.253C78.4581 277.616 79.0564 276.722 79.435 275.77C80.2454 273.661 79.3401 269.462 79.4451 267.108C79.5765 261.109 80.1571 254.779 82.0115 249.103C83.8982 243.538 86.8066 236.467 91.1306 232.302C93.7784 229.748 96.7555 229.054 100.066 228.22ZM76.9761 254.938C75.9765 256.532 74.589 258.06 73.9038 259.835C73.181 261.661 73.1913 263.67 72.8198 265.614C72.2031 268.838 71.7389 272.24 70.9643 275.458C70.37 277.776 69.5232 280.11 68.6421 282.362C67.6905 284.721 66.5182 287.053 65.2222 289.298C64.5382 290.483 63.5387 291.485 62.8003 292.48C64.9194 292.12 66.9605 291.629 69.0229 291.649C70.8874 291.733 72.8063 292.165 74.6793 292.671C77.5082 293.397 80.3363 294.273 83.0875 295.274C85.9751 296.196 88.7325 297.468 91.5875 298.444C92.9425 298.972 94.3361 299.598 95.8413 299.729C97.5166 299.859 99.1897 299.413 100.808 299.351C99.0897 301.023 97.596 302.741 95.7436 304.089C93.9408 305.466 92.0775 306.802 89.9682 307.581C86.9724 308.597 83.8064 309.176 80.6168 309.509C77.8821 309.764 75.0509 309.623 72.2807 309.522C70.0225 309.389 67.7402 309.162 65.5737 308.733C63.4391 308.258 61.4174 307.422 59.3218 306.876C57.2215 306.328 55.1945 305.652 53.0171 305.392C51.2169 305.186 49.2808 305.084 47.4546 305.347C45.138 305.766 43.0301 306.964 40.8276 307.605C39.5092 308.01 38.207 308.67 36.8511 308.722C36.3602 308.697 36.0824 308.035 35.8159 307.626C35.5258 307.123 35.1454 306.49 35.2104 305.944C35.3094 305.329 35.7981 304.781 36.2651 304.39C36.9799 303.883 37.8577 303.653 38.6889 303.376C40.3662 302.927 42.1997 303.062 43.7261 302.286C44.5647 301.855 45.1466 300.848 45.4272 299.937C45.8757 298.284 45.6274 296.552 45.9155 294.888C46.3567 291.976 46.7453 289.131 47.6245 286.302C48.633 283.126 49.8795 279.942 51.3608 276.958C53.1157 273.48 55.0021 270.076 57.2847 266.972C59.3729 264.091 61.6986 261.365 64.4155 259.095C66.1895 257.624 68.2227 256.554 70.3979 255.81C72.5377 255.129 74.7919 255.265 76.9761 254.938ZM44.4839 276.169C46.1393 276.164 47.8114 276.43 49.48 276.458C48.2301 277.899 46.603 279.128 45.6264 280.819C44.6581 282.496 44.3499 284.488 43.6929 286.353C42.5234 289.52 41.5244 292.682 40.2418 295.776C39.3018 297.98 38.1383 300.135 36.8491 302.229C35.4923 304.443 34.0056 306.58 32.3668 308.546C31.4953 309.63 30.3475 310.468 29.4643 311.286C31.6215 311.284 33.7342 311.093 35.7456 311.497C37.6278 311.834 39.4282 312.623 41.1538 313.376C43.9038 314.539 46.4723 315.857 49.0679 317.274C51.7598 318.666 54.2752 320.36 56.9331 321.813C58.2202 322.479 59.5603 323.33 60.9233 323.708C62.6177 324.099 64.3118 323.899 65.8413 324.13C63.8881 325.501 62.1539 326.919 60.1793 328.026C58.1792 329.034 56.0921 330.072 53.9293 330.491C50.7627 331.077 47.5938 331.079 44.3725 330.884C41.5932 330.785 38.8582 330.196 36.1186 329.618C33.9161 329.096 31.7513 328.509 29.6343 327.716C27.6417 326.971 25.7089 325.856 23.7261 324.958C21.8014 324.106 19.8616 323.151 17.8003 322.532C15.9558 321.977 14.1411 321.513 12.2651 321.593C9.93642 321.585 7.62685 322.409 5.34325 322.759C4.00555 322.902 2.6536 323.377 1.2827 323.165C0.8306 323.078 0.546671 322.41 0.421371 321.917C0.228271 321.389 -0.0559879 320.723 0.165512 320.19C0.330312 319.617 0.880262 319.101 1.44676 318.841C2.18196 318.435 3.0932 318.297 3.9702 318.22C5.6662 318.029 7.47194 318.492 9.11864 317.944C10.0454 317.645 10.704 316.787 11.15 315.87C11.8568 314.366 11.9043 312.56 12.3784 311.007C13.324 308.22 14.2044 305.398 15.4625 302.788C16.9698 299.738 18.7233 296.843 20.7007 294.149C22.9515 290.961 25.3711 287.94 28.1147 285.194C30.624 282.727 33.3821 280.4 36.435 278.583C38.3718 277.376 40.6161 276.669 42.8354 276.282C43.3826 276.201 43.9321 276.171 44.4839 276.169Z" fill="white"/>
</svg>
